<svg xmlns="http://www.w3.org/2000/svg" width="1em" height="1em" viewBox="0 0 20 20"><path fill="currentColor" d="M15.0833 14.8083c1.2333-1.3 1.9083-3.0333 1.9083-4.825-.0083-3.325-2.35-6.1833-5.6083-6.8417C8.125 2.4833 4.85 4.2 3.55 7.2583c-1.3 3.0583-.275 6.6083 2.4583 8.5 2.725 1.8917 6.4167 1.6 8.8167-.6917.0917-.0833.175-.175.2583-.2583Zm1.2583.5917 2.575 2.575c-.3167.3167-.625.625-.9417.9417-.8583-.8583-1.7167-1.7167-2.575-2.575-3.4083 2.9-8.4917 2.5917-11.525-.6917C.8417 12.3667.9417 7.275 4.1083 4.1083 7.2667.9417 12.3667.8417 15.65 3.875s3.5917 8.1167.6917 11.525Zm-3.55-2.6083V7.2083H7.2083v5.5833h5.5833ZM5.875 5.875h8.25v8.25H5.875V5.875Z"></path></svg>